<svg  xmlns="http://www.w3.org/2000/svg">

<symbol width="50px" height="50px"  viewBox="0 0 50 50" fill="none" id="instagram">
<path d="M25.0029 18.8467C21.5969 18.8467 18.8496 21.594 18.8496 25C18.8496 28.406 21.5969 31.1533 25.0029 31.1533C28.4089 31.1533 31.1562 28.406 31.1562 25C31.1562 21.594 28.4089 18.8467 25.0029 18.8467ZM25.0029 29.0004C22.8019 29.0004 21.0025 27.2064 21.0025 25C21.0025 22.7936 22.7965 20.9996 25.0029 20.9996C27.2093 20.9996 29.0034 22.7936 29.0034 25C29.0034 27.2064 27.204 29.0004 25.0029 29.0004ZM32.8431 18.595C32.8431 19.3929 32.2005 20.0302 31.4079 20.0302C30.61 20.0302 29.9727 19.3876 29.9727 18.595C29.9727 17.8024 30.6153 17.1598 31.4079 17.1598C32.2005 17.1598 32.8431 17.8024 32.8431 18.595ZM36.9186 20.0517C36.8275 18.1291 36.3884 16.4261 34.9799 15.023C33.5768 13.6199 31.8738 13.1807 29.9513 13.0843C27.9698 12.9719 22.0307 12.9719 20.0492 13.0843C18.132 13.1754 16.429 13.6145 15.0205 15.0176C13.6121 16.4207 13.1783 18.1237 13.0819 20.0463C12.9694 22.0278 12.9694 27.9669 13.0819 29.9483C13.1729 31.8709 13.6121 33.5739 15.0205 34.977C16.429 36.3801 18.1266 36.8193 20.0492 36.9157C22.0307 37.0281 27.9698 37.0281 29.9513 36.9157C31.8738 36.8246 33.5768 36.3855 34.9799 34.977C36.383 33.5739 36.8222 31.8709 36.9186 29.9483C37.031 27.9669 37.031 22.0331 36.9186 20.0517ZM34.3587 32.0744C33.941 33.1241 33.1323 33.9327 32.0773 34.3558C30.4975 34.9824 26.7488 34.8378 25.0029 34.8378C23.2571 34.8378 19.503 34.977 17.9285 34.3558C16.8788 33.9381 16.0702 33.1294 15.6471 32.0744C15.0205 30.4946 15.1651 26.7458 15.1651 25C15.1651 23.2542 15.0259 19.5001 15.6471 17.9256C16.0648 16.8759 16.8735 16.0673 17.9285 15.6442C19.5083 15.0176 23.2571 15.1622 25.0029 15.1622C26.7488 15.1622 30.5029 15.023 32.0773 15.6442C33.127 16.0619 33.9356 16.8706 34.3587 17.9256C34.9853 19.5054 34.8407 23.2542 34.8407 25C34.8407 26.7458 34.9853 30.4999 34.3587 32.0744Z" fill="#565656"/>
<rect x="0.5" y="0.5" width="49" height="49" stroke="#565656"/>
</symbol>  

<symbol width="50px" height="50px"  viewBox="0 0 50 50" fill="none" id="facebook">
<path d="M31.084 26.5L31.7505 22.1566H27.5829V19.338C27.5829 18.1497 28.1651 16.9914 30.0316 16.9914H31.9263V13.2934C31.9263 13.2934 30.207 13 28.563 13C25.1309 13 22.8874 15.0803 22.8874 18.8463V22.1566H19.0723V26.5H22.8874V37H27.5829V26.5H31.084Z"/>
<rect x="0.999512" y="0.5" width="49" height="49" stroke="#565656"/>
</symbol> 

<symbol width="50px" height="50px"  viewBox="0 0 50 50" fill="none" id="twitter">
<rect x="0.999512" y="0.5" width="49" height="49" fill="none"/>
<path d="M37.2371 18.9812C37.2559 19.2437 37.2559 19.5063 37.2559 19.7687C37.2559 27.775 31.1622 37 20.0246 37C16.5934 37 13.4059 36.0062 10.7246 34.2813C11.2121 34.3375 11.6808 34.3563 12.1871 34.3563C15.0183 34.3563 17.6246 33.4 19.7059 31.7688C17.0434 31.7125 14.8121 29.9688 14.0433 27.5687C14.4184 27.625 14.7933 27.6625 15.1871 27.6625C15.7309 27.6625 16.2746 27.5874 16.7809 27.4563C14.0059 26.8937 11.9246 24.4562 11.9246 21.5125V21.4375C12.7308 21.8875 13.6684 22.1688 14.662 22.2062C13.0308 21.1187 11.9621 19.2625 11.9621 17.1625C11.9621 16.0375 12.262 15.0062 12.7871 14.1062C15.7683 17.7812 20.2496 20.1812 25.2745 20.4437C25.1808 19.9937 25.1245 19.525 25.1245 19.0563C25.1245 15.7187 27.8246 13 31.1808 13C32.9245 13 34.4995 13.7312 35.6058 14.9125C36.9745 14.65 38.287 14.1437 39.4496 13.45C38.9995 14.8563 38.0433 16.0375 36.7871 16.7875C38.0058 16.6563 39.1871 16.3187 40.2745 15.85C39.4497 17.05 38.4184 18.1187 37.2371 18.9812V18.9812Z"/>
<rect x="0.999512" y="0.5" width="49" height="49" stroke="#565656"/>
</symbol> 

<symbol width="50px" height="50px"  viewBox="0 0 50 50" fill="none" id="linkedin">
<path d="M18.8718 37H13.8959V20.9764H18.8718V37ZM16.3812 18.7907C14.7901 18.7907 13.4995 17.4728 13.4995 15.8817C13.4995 15.1174 13.8031 14.3844 14.3435 13.844C14.884 13.3036 15.6169 13 16.3812 13C17.1455 13 17.8784 13.3036 18.4188 13.844C18.9593 14.3844 19.2629 15.1174 19.2629 15.8817C19.2629 17.4728 17.9718 18.7907 16.3812 18.7907ZM37.4947 37H32.5296V29.1998C32.5296 27.3409 32.4921 24.9569 29.9426 24.9569C27.3555 24.9569 26.9591 26.9766 26.9591 29.0659V37H21.9886V20.9764H26.7609V23.1622H26.8305C27.4948 21.9032 29.1175 20.5746 31.5385 20.5746C36.5743 20.5746 37.5 23.8908 37.5 28.198V37H37.4947Z"/>
<rect x="0.999512" y="0.5" width="49.0007" height="49" stroke="#565656"/>
</symbol> 

</svg>
